<svg width="196" height="196" viewBox="0 0 196 196" fill="none" xmlns="http://www.w3.org/2000/svg">
    <path fill-rule="evenodd" clip-rule="evenodd" d="M28.7042 28.7042C18.8797 38.5258 15.3321 52.2477 18.0614 64.8868C7.1932 71.897 0 84.109 0 98C0 111.892 7.1942 124.103 18.0614 131.112C15.3331 143.751 18.8807 157.473 28.7042 167.297C38.5267 177.119 52.2487 180.667 64.8878 177.94C71.897 188.806 84.109 196 98 196C111.892 196 124.103 188.806 131.112 177.94C143.751 180.667 157.473 177.119 167.297 167.297C177.119 157.473 180.667 143.751 177.94 131.112C188.806 124.103 196 111.892 196 98C196 84.109 188.806 71.897 177.94 64.8878C180.667 52.2487 177.119 38.5258 167.297 28.7032C157.473 18.8807 143.751 15.3331 131.112 18.0604C124.103 7.1942 111.892 0 98 0C84.109 0 71.897 7.1942 64.8878 18.0614C52.2487 15.3331 38.5267 18.8807 28.7042 28.7042Z" fill="#EBEBEB"/>
    <path fill-rule="evenodd" clip-rule="evenodd" d="M18.0614 131.112C7.1942 124.103 0 111.892 0 98C0 84.109 7.1932 71.897 18.0614 64.8868C15.3321 52.2477 18.8797 38.5258 28.7042 28.7042C38.5267 18.8807 52.2487 15.3331 64.8878 18.0614C71.897 7.1942 84.109 0 98 0C111.892 0 124.103 7.1942 131.112 18.0604C143.751 15.3331 157.473 18.8807 167.297 28.7032C177.119 38.5258 180.667 52.2487 177.94 64.8878C188.806 71.897 196 84.109 196 98C196 111.892 188.806 124.103 177.94 131.112C180.667 143.751 177.119 157.473 167.297 167.297C157.473 177.119 143.751 180.667 131.112 177.94C124.103 188.806 111.892 196 98 196C84.109 196 71.897 188.806 64.8878 177.94C52.2487 180.667 38.5267 177.119 28.7042 167.297C18.8807 157.473 15.3331 143.751 18.0614 131.112Z" fill="#EBEBEB"/>
    <path d="M98.001 164.666C134.82 164.666 164.667 134.819 164.667 98C164.667 61.1807 134.82 31.333 98.001 31.333C61.1817 31.333 31.334 61.1807 31.334 98C31.334 134.819 61.1817 164.666 98.001 164.666Z" fill="#FF90E8"/>
    <path d="M92.213 131.6C72.685 131.6 61.1973 115.936 61.1973 96.452C61.1973 76.205 73.834 59.7773 97.957 59.7773C122.846 59.7773 131.27 76.587 131.653 86.137H113.656C113.274 80.789 108.679 72.766 97.574 72.766C85.704 72.766 78.045 83.081 78.045 95.688C78.045 108.295 85.704 118.61 97.574 118.61C108.296 118.61 112.891 110.206 114.805 101.801H97.574V94.925H133.731V130.072H117.868V107.914C116.719 115.936 111.742 131.6 92.213 131.6Z" fill="black"/>
    </svg>
    